<svg xmlns="http://www.w3.org/2000/svg" width="30" height="36.575" viewBox="0 0 30 36.575">
  <defs>
    <style>
      .cls-1 {
        fill: #fff;
      }
    </style>
  </defs>
  <g id="apple" transform="translate(-46.022)">
    <path id="Caminho_70" data-name="Caminho 70" class="cls-1" d="M55.968,145.164c-5.444-.03-9.946-10.77-9.946-16.239,0-8.934,6.935-10.89,9.607-10.89a11.369,11.369,0,0,1,3.625.862,8.321,8.321,0,0,0,2.07.573A6.6,6.6,0,0,0,62.809,119a12.237,12.237,0,0,1,4.476-1.046h.01a9.3,9.3,0,0,1,7.677,3.747l.56.813-.806.588a6.53,6.53,0,0,0-3.251,5.4A6.1,6.1,0,0,0,75,134.148c.5.293,1.027.6,1.027,1.257,0,.432-3.566,9.7-8.745,9.7a7.229,7.229,0,0,1-2.953-.693,6.156,6.156,0,0,0-2.629-.612,6.947,6.947,0,0,0-2.081.544,10.488,10.488,0,0,1-3.61.814Z" transform="translate(0 -108.588)"/>
    <path id="Caminho_71" data-name="Caminho 71" class="cls-1" d="M262.795,0c.15,5.408-3.717,9.159-7.58,8.924C254.578,4.608,259.077,0,262.795,0Z" transform="translate(-194.69)"/>
  </g>
</svg>
