<svg id="Cadeado" xmlns="http://www.w3.org/2000/svg" width="24" height="24" viewBox="0 0 24 24">
  <defs>
    <style>
      .cls-1 {
        fill: #b7b7b7;
      }

      .cls-2 {
        fill: none;
      }
    </style>
  </defs>
  <g id="Grupo_56" data-name="Grupo 56">
    <path id="Caminho_63" data-name="Caminho 63" class="cls-1" d="M19.5,10H18V8A6,6,0,0,0,6,8v2H4.5a.5.5,0,0,0-.5.5v9.75A1.758,1.758,0,0,0,5.75,22h12.5A1.758,1.758,0,0,0,20,20.25V10.5A.5.5,0,0,0,19.5,10ZM8,8a4,4,0,0,1,8,0v2H8Zm3.45,10a.527.527,0,0,1-.44-.65l.35-2.59A.974.974,0,0,1,11,14a1,1,0,0,1,2,0,.974.974,0,0,1-.36.76l.35,2.59a.527.527,0,0,1-.44.65Z"/>
    <rect id="Retângulo_93" data-name="Retângulo 93" class="cls-2" width="24" height="24"/>
  </g>
</svg>
