<svg xmlns="http://www.w3.org/2000/svg" width="30" height="30" viewBox="0 0 30 30">
  <defs>
    <style>
      .cls-1 {
        fill: #fff;
      }
    </style>
  </defs>
  <path id="facebook" class="cls-1" d="M25.959,0H4.045A4.043,4.043,0,0,0,0,4.043V25.957A4.043,4.043,0,0,0,4.045,30H14.853l.018-10.72H12.086a.657.657,0,0,1-.657-.655l-.013-3.456a.657.657,0,0,1,.657-.66h2.78V11.171c0-3.875,2.367-5.985,5.823-5.985h2.836a.657.657,0,0,1,.657.657V8.757a.657.657,0,0,1-.657.657H21.772c-1.88,0-2.244.893-2.244,2.2V14.51h4.131a.657.657,0,0,1,.653.735L23.9,18.7a.657.657,0,0,1-.653.58h-3.7L19.528,30h6.431A4.043,4.043,0,0,0,30,25.958V4.043A4.043,4.043,0,0,0,25.959,0Z" transform="translate(-0.002)"/>
</svg>
