<svg xmlns="http://www.w3.org/2000/svg" width="30" height="30.006" viewBox="0 0 30 30.006">
  <defs>
    <style>
      .cls-1 {
        fill: #fff;
      }
    </style>
  </defs>
  <g id="gmail" transform="translate(-5 -82.519)">
    <path id="Caminho_72" data-name="Caminho 72" class="cls-1" d="M16.454,100.617H23.78a9.314,9.314,0,1,1-2.529-9.988,1.009,1.009,0,0,0,1.373,0l2.691-2.533a1.006,1.006,0,0,0,0-1.463A14.947,14.947,0,0,0,15.3,82.522,15,15,0,1,0,29.981,98.366c.012-.1.019-3.443.019-3.443H16.454a1,1,0,0,0-1.005,1.005v3.684A1,1,0,0,0,16.454,100.617Z" transform="translate(5 0)"/>
  </g>
</svg>
