<svg id="Grupo_33" data-name="Grupo 33" xmlns="http://www.w3.org/2000/svg" width="24" height="24" viewBox="0 0 24 24">
  <defs>
    <style>
      .cls-1 {
        fill: none;
      }

      .cls-2 {
        fill: #f8d56d;
      }
    </style>
  </defs>
  <rect id="Retângulo_68" data-name="Retângulo 68" class="cls-1" width="24" height="24"/>
  <path id="Caminho_52" data-name="Caminho 52" class="cls-2" d="M8,6H8a2.006,2.006,0,0,1,2-2H20a2.006,2.006,0,0,1,2,2h0a2.006,2.006,0,0,1-2,2H10A2.006,2.006,0,0,1,8,6Zm2,8H20a2.006,2.006,0,0,0,2-2h0a2.006,2.006,0,0,0-2-2H10a2.006,2.006,0,0,0-2,2H8A2.006,2.006,0,0,0,10,14Zm0,6H20a2.006,2.006,0,0,0,2-2h0a2.006,2.006,0,0,0-2-2H10a2.006,2.006,0,0,0-2,2H8A2.006,2.006,0,0,0,10,20ZM4,4A2,2,0,1,0,6,6,2.006,2.006,0,0,0,4,4Zm0,6a2,2,0,1,0,2,2A2.006,2.006,0,0,0,4,10Zm0,6a2,2,0,1,0,2,2A2.006,2.006,0,0,0,4,16Z"/>
</svg>
