<svg xmlns="http://www.w3.org/2000/svg" width="187.07" height="86.212" viewBox="0 0 187.07 86.212"><defs><style>.a{fill:#fff;}.b{fill:#f39e1c;}</style></defs><g transform="translate(1.027 76.555)"><path class="a" d="M3247.586,1966.1h1.1l4.705,6.213.312.416.052-.013V1966.1h1.157v8.916h-1.053l-4.732-6.291-.337-.455-.052.013v6.733h-1.157Z" transform="translate(-3247.586 -1965.514)"/><path class="a" d="M3273.831,1978.353a2.433,2.433,0,0,1-.552-1.774v-4.666h1.144v4.588a1.458,1.458,0,0,0,.364,1.137,1.551,1.551,0,0,0,1.053.319,1.784,1.784,0,0,0,.91-.241,1.739,1.739,0,0,0,.663-.7,2.2,2.2,0,0,0,.247-1.066v-4.042h1.144v6.837h-.871l-.13-.923h-.091a2.617,2.617,0,0,1-2.3,1.079A2.138,2.138,0,0,1,3273.831,1978.353Z" transform="translate(-3264.09 -1969.249)"/><path class="a" d="M3293.595,1971.634h.871l.13.923h.091a2.616,2.616,0,0,1,2.3-1.078,2.137,2.137,0,0,1,1.579.552,2.432,2.432,0,0,1,.552,1.774v4.666h-1.144v-4.588a1.46,1.46,0,0,0-.364-1.137,1.551,1.551,0,0,0-1.053-.319,1.782,1.782,0,0,0-.91.241,1.741,1.741,0,0,0-.663.7,2.2,2.2,0,0,0-.247,1.066v4.042h-1.144Z" transform="translate(-3277.14 -1968.969)"/><path class="a" d="M3313.367,1977.762a5.379,5.379,0,0,1,.006-5.413,2.82,2.82,0,0,1,2.281-.871,2.739,2.739,0,0,1,2.054.676,2.8,2.8,0,0,1,.65,2.015h-1.169a2.127,2.127,0,0,0-.331-1.333,1.481,1.481,0,0,0-1.2-.409,1.593,1.593,0,0,0-1.39.617,3.525,3.525,0,0,0-.442,2.009v.052a3.475,3.475,0,0,0,.429,1.976,1.609,1.609,0,0,0,1.4.6,1.532,1.532,0,0,0,1.228-.436,1.974,1.974,0,0,0,.371-1.306h1.1a2.829,2.829,0,0,1-.663,1.93,2.565,2.565,0,0,1-2.041.76A2.826,2.826,0,0,1,3313.367,1977.762Z" transform="translate(-3289.374 -1968.969)"/><path class="a" d="M3331.534,1978.211a1.615,1.615,0,0,1-.688-1.508,1.789,1.789,0,0,1,1.169-1.8,9.138,9.138,0,0,1,3.379-.488v-.753a1.2,1.2,0,0,0-.338-.916,2.462,2.462,0,0,0-2.411-.007.978.978,0,0,0-.357.767v.156h-1.1a2.046,2.046,0,0,1-.013-.286,1.582,1.582,0,0,1,.754-1.4,3.631,3.631,0,0,1,2.014-.494,3.036,3.036,0,0,1,1.937.532,1.825,1.825,0,0,1,.663,1.508v3.7a.428.428,0,0,0,.13.345.484.484,0,0,0,.325.111h.52v.741a2.124,2.124,0,0,1-.884.156,1.073,1.073,0,0,1-.741-.266,1.327,1.327,0,0,1-.4-.708h-.091a2.353,2.353,0,0,1-.955.754,3.2,3.2,0,0,1-1.332.273A2.987,2.987,0,0,1,3331.534,1978.211Zm2.833-.741a1.8,1.8,0,0,0,.741-.617,1.7,1.7,0,0,0,.286-.994v-.494a8.863,8.863,0,0,0-2.515.266,1.021,1.021,0,0,0-.839,1.007.9.9,0,0,0,.345.8,1.779,1.779,0,0,0,1.02.241A2.278,2.278,0,0,0,3334.368,1977.469Z" transform="translate(-3301.069 -1968.969)"/><path class="a" d="M3361.175,1968.076h-1v-.949h1v-1.092a1.815,1.815,0,0,1,.338-1.124,1.342,1.342,0,0,1,1.144-.449,3.153,3.153,0,0,1,.526.045,2.784,2.784,0,0,1,.448.111v.793h-.676a.557.557,0,0,0-.637.624v1.092h1.313v.949h-1.313v5.888h-1.144Z" transform="translate(-3319.908 -1964.463)"/><path class="a" d="M3372.016,1977.749a4.984,4.984,0,0,1,0-5.394,3.628,3.628,0,0,1,4.731,0,4.983,4.983,0,0,1,0,5.394,3.628,3.628,0,0,1-4.731,0Zm3.874-.676a3.249,3.249,0,0,0,.467-1.969v-.1a3.25,3.25,0,0,0-.467-1.969,2.183,2.183,0,0,0-3.016,0,3.249,3.249,0,0,0-.468,1.969v.1a3.248,3.248,0,0,0,.468,1.969,2.182,2.182,0,0,0,3.016,0Z" transform="translate(-3327.006 -1968.969)"/><path class="a" d="M3392.591,1964.754h1.131v1.234h-1.131Zm0,2.56h1.144v6.837h-1.144Z" transform="translate(-3340.732 -1964.65)"/><path class="a" d="M3410.138,1975.068a1.616,1.616,0,0,1-.325-1.026v-4.589h-.832v-.949h.845l.247-1.9h.884v1.9h1.157v.949h-1.157v4.484q0,.611.572.611h.585v.754a1.947,1.947,0,0,1-.442.13,2.75,2.75,0,0,1-.507.052A1.223,1.223,0,0,1,3410.138,1975.068Z" transform="translate(-3351.26 -1965.84)"/><path class="a" d="M3420.427,1973.891a1.614,1.614,0,0,1-.689-1.508,1.789,1.789,0,0,1,1.17-1.8,9.136,9.136,0,0,1,3.379-.488v-.753a1.2,1.2,0,0,0-.338-.916,2.462,2.462,0,0,0-2.411-.007.978.978,0,0,0-.357.767v.156h-1.1a1.987,1.987,0,0,1-.013-.286,1.583,1.583,0,0,1,.754-1.4,3.632,3.632,0,0,1,2.015-.494,3.037,3.037,0,0,1,1.937.533,1.824,1.824,0,0,1,.663,1.508v3.7a.428.428,0,0,0,.13.345.483.483,0,0,0,.325.111h.52v.741a2.127,2.127,0,0,1-.884.156,1.073,1.073,0,0,1-.74-.266,1.327,1.327,0,0,1-.4-.708h-.091a2.354,2.354,0,0,1-.955.754,3.2,3.2,0,0,1-1.332.273A2.985,2.985,0,0,1,3420.427,1973.891Zm.455-8.754a.952.952,0,0,1,.832-.383,2.142,2.142,0,0,1,.474.052q.227.052.552.156a2.918,2.918,0,0,0,.91.2q.324,0,.364-.4h.845a1.627,1.627,0,0,1-.273.968.953.953,0,0,1-.832.383,2.112,2.112,0,0,1-.474-.052q-.228-.052-.552-.156a2.918,2.918,0,0,0-.91-.195q-.325,0-.364.4h-.845A1.63,1.63,0,0,1,3420.882,1965.137Zm2.378,8.013a1.8,1.8,0,0,0,.741-.617,1.7,1.7,0,0,0,.286-.994v-.494a8.862,8.862,0,0,0-2.515.266,1.021,1.021,0,0,0-.839,1.007.9.9,0,0,0,.345.8,1.78,1.78,0,0,0,1.02.241A2.281,2.281,0,0,0,3423.26,1973.15Z" transform="translate(-3358.17 -1964.65)"/><path class="a" d="M3440.7,1977.749a4.983,4.983,0,0,1,0-5.394,3.627,3.627,0,0,1,4.731,0,4.983,4.983,0,0,1,0,5.394,3.627,3.627,0,0,1-4.731,0Zm3.873-.676a3.25,3.25,0,0,0,.468-1.969v-.1a3.251,3.251,0,0,0-.468-1.969,2.183,2.183,0,0,0-3.016,0,3.251,3.251,0,0,0-.468,1.969v.1a3.25,3.25,0,0,0,.468,1.969,2.182,2.182,0,0,0,3.016,0Z" transform="translate(-3371.127 -1968.969)"/><path class="a" d="M3470.274,1968.076h-1v-.949h1v-1.092a1.816,1.816,0,0,1,.338-1.124,1.341,1.341,0,0,1,1.144-.449,3.162,3.162,0,0,1,.526.045,2.78,2.78,0,0,1,.448.111v.793h-.676a.557.557,0,0,0-.637.624v1.092h1.313v.949h-1.313v5.888h-1.144Z" transform="translate(-3389.989 -1964.463)"/><path class="a" d="M3481.046,1973.891a1.615,1.615,0,0,1-.689-1.508,1.789,1.789,0,0,1,1.17-1.8,9.138,9.138,0,0,1,3.379-.488v-.753a1.2,1.2,0,0,0-.338-.916,2.462,2.462,0,0,0-2.411-.007.979.979,0,0,0-.357.767v.156h-1.105a2.06,2.06,0,0,1-.013-.286,1.582,1.582,0,0,1,.754-1.4,3.63,3.63,0,0,1,2.014-.494,3.037,3.037,0,0,1,1.937.533,1.826,1.826,0,0,1,.663,1.508v3.7a.426.426,0,0,0,.13.345.483.483,0,0,0,.325.111h.52v.741a2.123,2.123,0,0,1-.884.156,1.074,1.074,0,0,1-.741-.266,1.323,1.323,0,0,1-.4-.708h-.091a2.352,2.352,0,0,1-.955.754,3.2,3.2,0,0,1-1.332.273A2.986,2.986,0,0,1,3481.046,1973.891Zm2.834-.741a1.8,1.8,0,0,0,.741-.617,1.693,1.693,0,0,0,.286-.994v-.494a8.862,8.862,0,0,0-2.515.266,1.021,1.021,0,0,0-.838,1.007.9.9,0,0,0,.344.8,1.782,1.782,0,0,0,1.02.241A2.283,2.283,0,0,0,3483.879,1973.15Zm.117-8.4h1.248l.014.039-1.4,1.677h-.975Z" transform="translate(-3397.109 -1964.65)"/><path class="a" d="M3501.256,1977.762a5.377,5.377,0,0,1,.006-5.413,2.819,2.819,0,0,1,2.281-.871,2.739,2.739,0,0,1,2.053.676,2.8,2.8,0,0,1,.65,2.015h-1.17a2.129,2.129,0,0,0-.332-1.333,1.48,1.48,0,0,0-1.2-.409,1.6,1.6,0,0,0-1.391.617,3.53,3.53,0,0,0-.442,2.009v.052a3.476,3.476,0,0,0,.429,1.976,1.61,1.61,0,0,0,1.4.6,1.532,1.532,0,0,0,1.228-.436,1.974,1.974,0,0,0,.371-1.306h1.1a2.833,2.833,0,0,1-.663,1.93,2.565,2.565,0,0,1-2.041.76A2.826,2.826,0,0,1,3501.256,1977.762Z" transform="translate(-3410.066 -1968.969)"/><path class="a" d="M3519.861,1964.754h1.131v1.234h-1.131Zm0,2.56h1.144v6.837h-1.144Z" transform="translate(-3422.485 -1964.65)"/><path class="a" d="M3527.929,1964.754h1.144v9.4h-1.144Z" transform="translate(-3427.668 -1964.65)"/><path class="a" d="M3545.888,1977.755a4.935,4.935,0,0,1,0-5.407,3.19,3.19,0,0,1,2.456-.871,2.89,2.89,0,0,1,2.216.786,3.624,3.624,0,0,1,.735,2.528v.572h-5.03a2.825,2.825,0,0,0,.566,1.748,1.916,1.916,0,0,0,1.514.566,2.164,2.164,0,0,0,1.325-.377,1.348,1.348,0,0,0,.507-1.157h1.118a2.193,2.193,0,0,1-.825,1.839,3.354,3.354,0,0,1-2.125.644A3.189,3.189,0,0,1,3545.888,1977.755Zm4.211-3.34q0-1.989-1.754-1.988a2.038,2.038,0,0,0-1.462.468,2.375,2.375,0,0,0-.592,1.521Z" transform="translate(-3438.686 -1968.969)"/><path class="a" d="M3575.948,1973.436a4.274,4.274,0,0,1-.7-2.7,4.322,4.322,0,0,1,.695-2.684,2.286,2.286,0,0,1,1.9-.89,3.094,3.094,0,0,1,1.235.221,1.972,1.972,0,0,1,.845.715H3580v-3.34h1.144v9.4h-.857l-.143-.923h-.078a2.179,2.179,0,0,1-.89.806,2.735,2.735,0,0,1-1.228.273A2.423,2.423,0,0,1,3575.948,1973.436Zm3.633-.728a3.557,3.557,0,0,0,.423-1.924v-.052a3.647,3.647,0,0,0-.429-1.963,1.481,1.481,0,0,0-1.339-.663,1.916,1.916,0,0,0-1.046.254,1.454,1.454,0,0,0-.578.825,5.268,5.268,0,0,0-.182,1.547v.052a5.075,5.075,0,0,0,.182,1.521,1.431,1.431,0,0,0,.572.806,1.955,1.955,0,0,0,1.053.247A1.487,1.487,0,0,0,3579.581,1972.708Z" transform="translate(-3458.063 -1964.65)"/><path class="a" d="M3596.615,1964.754h1.131v1.234h-1.131Zm0,2.56h1.144v6.837h-1.144Z" transform="translate(-3471.788 -1964.65)"/><path class="a" d="M3602.721,1971.913h1.209l1.208,3.419q.26.727.676,2.144h.065q.376-1.339.663-2.144l1.2-3.419h1.144l-2.508,6.837h-1.144Z" transform="translate(-3475.711 -1969.249)"/><path class="a" d="M3622.642,1977.755a4.935,4.935,0,0,1,0-5.407,3.189,3.189,0,0,1,2.456-.871,2.889,2.889,0,0,1,2.216.786,3.625,3.625,0,0,1,.735,2.528v.572h-5.03a2.825,2.825,0,0,0,.565,1.748,1.916,1.916,0,0,0,1.514.566,2.165,2.165,0,0,0,1.326-.377,1.347,1.347,0,0,0,.507-1.157h1.118a2.194,2.194,0,0,1-.826,1.839,3.353,3.353,0,0,1-2.125.644A3.188,3.188,0,0,1,3622.642,1977.755Zm4.211-3.34q0-1.989-1.755-1.988a2.038,2.038,0,0,0-1.462.468,2.376,2.376,0,0,0-.592,1.521Z" transform="translate(-3487.99 -1968.969)"/><path class="a" d="M3643.061,1971.634h.871l.13,1.027h.078a2.089,2.089,0,0,1,.585-.845,1.511,1.511,0,0,1,1.027-.338,1.639,1.639,0,0,1,.611.1v1.1h-.481a1.74,1.74,0,0,0-1.2.422,1.678,1.678,0,0,0-.475,1.319v4.042h-1.144Z" transform="translate(-3501.624 -1968.969)"/><path class="a" d="M3654.539,1975.068a1.616,1.616,0,0,1-.325-1.026v-4.589h-.832v-.949h.844l.247-1.9h.883v1.9h1.157v.949h-1.157v4.484q0,.611.572.611h.585v.754a1.965,1.965,0,0,1-.442.13,2.748,2.748,0,0,1-.507.052A1.223,1.223,0,0,1,3654.539,1975.068Z" transform="translate(-3508.254 -1965.84)"/><path class="a" d="M3665.265,1964.754h1.131v1.234h-1.131Zm0,2.56h1.144v6.837h-1.144Z" transform="translate(-3515.887 -1964.65)"/><path class="a" d="M3672.873,1973.436a4.273,4.273,0,0,1-.7-2.7,4.32,4.32,0,0,1,.695-2.684,2.286,2.286,0,0,1,1.9-.89,3.093,3.093,0,0,1,1.235.221,1.971,1.971,0,0,1,.845.715h.078v-3.34h1.144v9.4h-.858l-.143-.923h-.078a2.186,2.186,0,0,1-.89.806,2.735,2.735,0,0,1-1.228.273A2.422,2.422,0,0,1,3672.873,1973.436Zm3.633-.728a3.559,3.559,0,0,0,.422-1.924v-.052a3.642,3.642,0,0,0-.429-1.963,1.48,1.48,0,0,0-1.339-.663,1.916,1.916,0,0,0-1.046.254,1.454,1.454,0,0,0-.578.825,5.26,5.26,0,0,0-.182,1.547v.052a5.067,5.067,0,0,0,.182,1.521,1.429,1.429,0,0,0,.572.806,1.956,1.956,0,0,0,1.053.247A1.487,1.487,0,0,0,3676.505,1972.708Z" transform="translate(-3520.323 -1964.65)"/><path class="a" d="M3693.17,1977.749a4.984,4.984,0,0,1,0-5.394,3.628,3.628,0,0,1,4.731,0,4.984,4.984,0,0,1,0,5.394,3.628,3.628,0,0,1-4.731,0Zm3.873-.676a3.248,3.248,0,0,0,.468-1.969v-.1a3.249,3.249,0,0,0-.468-1.969,2.183,2.183,0,0,0-3.016,0,3.251,3.251,0,0,0-.468,1.969v.1a3.25,3.25,0,0,0,.468,1.969,2.182,2.182,0,0,0,3.016,0Z" transform="translate(-3533.302 -1968.969)"/></g><path class="a" d="M3259.5,1797.738h-7.469q-7.24.039-7.319,4.814v39.663q.078,4.818,7.391,4.814,7.4,0,7.4-4.925v-4.932q24.645,0,24.645-19.714T3259.5,1797.738Zm0,24.645v-9.857q9.86,0,9.857,4.932T3259.5,1822.383Z" transform="translate(-3244.715 -1780.811)"/><path class="a" d="M3385.029,1797.738q-19.72,0-19.72,24.763v4.925q0,24.655,19.72,24.652t19.714-24.652V1822.5Q3404.743,1797.738,3385.029,1797.738Zm4.925,29.577q0,9.86-4.925,9.857t-4.931-9.857v-4.932q0-9.968,4.931-9.975t4.925,9.975Z" transform="translate(-3322.18 -1780.811)"/><path class="a" d="M3521.4,1802.67q-7.4,0-7.4,4.925v19.72q0,9.86-4.925,9.857t-4.932-9.857V1802.67q0-4.935-7.4-4.932-7.309,0-7.391,4.814v24.763q0,24.645,19.72,24.645t19.713-24.645v-19.72Q3528.794,1802.67,3521.4,1802.67Z" transform="translate(-3401.866 -1780.811)"/><path class="b" d="M3706.062,1767.589a17.2,17.2,0,0,1-.464,3.957,2.978,2.978,0,0,1-2.911,2.276h-4.579a2.994,2.994,0,0,0-3,2.989v4.585a3,3,0,0,1-2.276,2.917,18.224,18.224,0,0,1-3.453.451v-17.176H3671.7a17.2,17.2,0,0,1,.458-3.964,2.977,2.977,0,0,1,2.91-2.276h4.585a2.99,2.99,0,0,0,3-2.989v-4.591a2.976,2.976,0,0,1,2.276-2.9,17.318,17.318,0,0,1,7.914,0,2.975,2.975,0,0,1,2.276,2.9v4.591a2.989,2.989,0,0,0,3,2.989h4.579a2.979,2.979,0,0,1,2.911,2.269A17.276,17.276,0,0,1,3706.062,1767.589Z" transform="translate(-3518.992 -1750.407)"/><path class="a" d="M3650.51,1815.719v-.092h-.007c-.163.006-.333.006-.5.006a17.84,17.84,0,0,1-3.957-.458,3,3,0,0,1-2.276-2.917v-4.585a2.994,2.994,0,0,0-3-2.989h-4.585a2.977,2.977,0,0,1-2.91-2.276,17.178,17.178,0,0,1-.451-3.506c-.007-.15-.007-.3-.007-.451H3618.5q-7.24.039-7.319,4.814v39.669q.079,4.807,7.4,4.814,7.388,0,7.391-4.931v-4.932q24.645,0,24.645-19.714C3650.614,1817.327,3650.575,1816.51,3650.51,1815.719ZM3630.9,1823.1q-4.935,0-4.931-9.857h9.857c0,.909-.033,1.759-.1,2.544Q3635.139,1823.1,3630.9,1823.1Z" transform="translate(-3480.118 -1781.269)"/></svg>