<svg id="Logo" xmlns="http://www.w3.org/2000/svg" width="24" height="24" viewBox="0 0 24 24">
  <defs>
    <style>
      .cls-1 {
        fill: #fff;
      }

      .cls-2 {
        fill: none;
      }
    </style>
  </defs>
  <g id="Grupo_42" data-name="Grupo 42">
    <path id="Caminho_56" data-name="Caminho 56" class="cls-1" d="M19.87,6.75a.839.839,0,0,0-.83-.64h-1.3a.849.849,0,0,1-.85-.85V3.96a.845.845,0,0,0-.65-.82A4.071,4.071,0,0,0,15.13,3a4.638,4.638,0,0,0-1.12.13.845.845,0,0,0-.65.82v1.3a.849.849,0,0,1-.85.85h-1.3a.856.856,0,0,0-.83.65,4.638,4.638,0,0,0-.13,1.12H6.2c-1.37.01-2.06.46-2.08,1.37V20.49c.02.91.71,1.36,2.1,1.36s2.1-.47,2.1-1.4v-1.4q6.99,0,6.99-5.59c0-.24-.01-.47-.03-.7v-.03h-.14a5.125,5.125,0,0,1-1.12-.13.856.856,0,0,1-.65-.83v-1.3a.849.849,0,0,0-.85-.85h-1.3a.847.847,0,0,1-.83-.64A4.455,4.455,0,0,1,10.26,8V7.87h5.01v4.87a5.256,5.256,0,0,0,.98-.13.856.856,0,0,0,.65-.83v-1.3a.849.849,0,0,1,.85-.85h1.3a.856.856,0,0,0,.83-.65A5.634,5.634,0,0,0,20,7.87,5.125,5.125,0,0,0,19.87,6.75Zm-8.76,5.31q0,.39-.03.72c-.11,1.38-.57,2.07-1.37,2.07-.93,0-1.4-.93-1.4-2.79Z"/>
    <rect id="Retângulo_73" data-name="Retângulo 73" class="cls-2" width="24" height="24"/>
  </g>
</svg>
